<mxfile host="app.diagrams.net" modified="2021-07-11T17:58:03.250Z" agent="5.0 (X11)" etag="qNy1Cp9rEYqzjqueA0PM" version="14.8.5" type="github">
  <diagram id="niUmtduJiJVGNo5zQUts" name="Page-1">
    <mxGraphModel dx="2062" dy="1124" grid="1" gridSize="10" guides="1" tooltips="1" connect="1" arrows="1" fold="1" page="1" pageScale="1" pageWidth="850" pageHeight="1100" math="0" shadow="0">
      <root>
        <mxCell id="0" />
        <mxCell id="1" parent="0" />
        <mxCell id="xQfnCEk7CWuEdYwv5p65-12" value="" style="group" vertex="1" connectable="0" parent="1">
          <mxGeometry x="460" y="135.2" width="259" height="60.19999999999999" as="geometry" />
        </mxCell>
        <mxCell id="xQfnCEk7CWuEdYwv5p65-7" value="" style="points=[];aspect=fixed;html=1;align=center;shadow=0;dashed=0;image;image=img/lib/allied_telesis/security/POE_DVS_Camera.svg;" vertex="1" parent="xQfnCEk7CWuEdYwv5p65-12">
          <mxGeometry x="208" y="20" width="51" height="40.2" as="geometry" />
        </mxCell>
        <mxCell id="xQfnCEk7CWuEdYwv5p65-8" value="" style="points=[];aspect=fixed;html=1;align=center;shadow=0;dashed=0;image;image=img/lib/allied_telesis/security/POE_DVS_Camera.svg;" vertex="1" parent="xQfnCEk7CWuEdYwv5p65-12">
          <mxGeometry x="140" y="20" width="51" height="40.2" as="geometry" />
        </mxCell>
        <mxCell id="xQfnCEk7CWuEdYwv5p65-9" value="" style="points=[];aspect=fixed;html=1;align=center;shadow=0;dashed=0;image;image=img/lib/allied_telesis/security/POE_DVS_Camera.svg;" vertex="1" parent="xQfnCEk7CWuEdYwv5p65-12">
          <mxGeometry x="69.99999999999997" y="20" width="51" height="40.2" as="geometry" />
        </mxCell>
        <mxCell id="xQfnCEk7CWuEdYwv5p65-10" value="" style="points=[];aspect=fixed;html=1;align=center;shadow=0;dashed=0;image;image=img/lib/allied_telesis/security/POE_DVS_Camera.svg;" vertex="1" parent="xQfnCEk7CWuEdYwv5p65-12">
          <mxGeometry y="20" width="51" height="40.2" as="geometry" />
        </mxCell>
        <mxCell id="xQfnCEk7CWuEdYwv5p65-11" value="Outdoor PoE Cameras" style="text;html=1;strokeColor=none;fillColor=none;align=center;verticalAlign=middle;whiteSpace=wrap;rounded=0;" vertex="1" parent="xQfnCEk7CWuEdYwv5p65-12">
          <mxGeometry x="56.89999999999998" width="140" height="20" as="geometry" />
        </mxCell>
        <mxCell id="xQfnCEk7CWuEdYwv5p65-13" value="" style="group" vertex="1" connectable="0" parent="1">
          <mxGeometry x="50" y="100" width="245.2" height="65.4" as="geometry" />
        </mxCell>
        <mxCell id="xQfnCEk7CWuEdYwv5p65-1" value="" style="points=[];aspect=fixed;html=1;align=center;shadow=0;dashed=0;image;image=img/lib/allied_telesis/security/Surveillance_Camera_Ceiling.svg;" vertex="1" parent="xQfnCEk7CWuEdYwv5p65-13">
          <mxGeometry y="30" width="37.2" height="35.4" as="geometry" />
        </mxCell>
        <mxCell id="xQfnCEk7CWuEdYwv5p65-2" value="" style="points=[];aspect=fixed;html=1;align=center;shadow=0;dashed=0;image;image=img/lib/allied_telesis/security/Surveillance_Camera_Ceiling.svg;" vertex="1" parent="xQfnCEk7CWuEdYwv5p65-13">
          <mxGeometry x="70" y="30" width="37.2" height="35.4" as="geometry" />
        </mxCell>
        <mxCell id="xQfnCEk7CWuEdYwv5p65-3" value="" style="points=[];aspect=fixed;html=1;align=center;shadow=0;dashed=0;image;image=img/lib/allied_telesis/security/Surveillance_Camera_Ceiling.svg;" vertex="1" parent="xQfnCEk7CWuEdYwv5p65-13">
          <mxGeometry x="140" y="30" width="37.2" height="35.4" as="geometry" />
        </mxCell>
        <mxCell id="xQfnCEk7CWuEdYwv5p65-4" value="" style="points=[];aspect=fixed;html=1;align=center;shadow=0;dashed=0;image;image=img/lib/allied_telesis/security/Surveillance_Camera_Ceiling.svg;" vertex="1" parent="xQfnCEk7CWuEdYwv5p65-13">
          <mxGeometry x="208" y="30" width="37.2" height="35.4" as="geometry" />
        </mxCell>
        <mxCell id="xQfnCEk7CWuEdYwv5p65-5" value="Indoor Cameras" style="text;html=1;strokeColor=none;fillColor=none;align=center;verticalAlign=middle;whiteSpace=wrap;rounded=0;" vertex="1" parent="xQfnCEk7CWuEdYwv5p65-13">
          <mxGeometry x="50" width="140" height="20" as="geometry" />
        </mxCell>
        <mxCell id="xQfnCEk7CWuEdYwv5p65-14" value="" style="points=[];aspect=fixed;html=1;align=center;shadow=0;dashed=0;image;image=img/lib/allied_telesis/switch/Switch_24_port_L2_POE.svg;" vertex="1" parent="1">
          <mxGeometry x="552.3" y="290" width="74.4" height="51" as="geometry" />
        </mxCell>
        <mxCell id="xQfnCEk7CWuEdYwv5p65-33" style="edgeStyle=orthogonalEdgeStyle;rounded=0;orthogonalLoop=1;jettySize=auto;html=1;" edge="1" parent="1" source="xQfnCEk7CWuEdYwv5p65-17" target="xQfnCEk7CWuEdYwv5p65-20">
          <mxGeometry relative="1" as="geometry">
            <Array as="points">
              <mxPoint x="330" y="390" />
              <mxPoint x="173" y="390" />
            </Array>
          </mxGeometry>
        </mxCell>
        <mxCell id="xQfnCEk7CWuEdYwv5p65-34" style="edgeStyle=orthogonalEdgeStyle;rounded=0;orthogonalLoop=1;jettySize=auto;html=1;" edge="1" parent="1" source="xQfnCEk7CWuEdYwv5p65-17" target="xQfnCEk7CWuEdYwv5p65-14">
          <mxGeometry relative="1" as="geometry">
            <Array as="points">
              <mxPoint x="357" y="390" />
              <mxPoint x="590" y="390" />
            </Array>
          </mxGeometry>
        </mxCell>
        <mxCell id="xQfnCEk7CWuEdYwv5p65-17" value="&lt;div&gt;Managed&lt;br&gt;&lt;/div&gt;" style="points=[];aspect=fixed;html=1;align=center;shadow=0;dashed=0;image;image=img/lib/allied_telesis/switch/Switch_24_port_L2.svg;" vertex="1" parent="1">
          <mxGeometry x="320" y="582" width="74.4" height="51" as="geometry" />
        </mxCell>
        <mxCell id="xQfnCEk7CWuEdYwv5p65-20" value="" style="points=[];aspect=fixed;html=1;align=center;shadow=0;dashed=0;image;image=img/lib/allied_telesis/switch/Switch_24_port_L2_POE.svg;" vertex="1" parent="1">
          <mxGeometry x="135.39999999999998" y="280" width="74.4" height="51" as="geometry" />
        </mxCell>
        <mxCell id="xQfnCEk7CWuEdYwv5p65-21" style="edgeStyle=orthogonalEdgeStyle;rounded=0;orthogonalLoop=1;jettySize=auto;html=1;" edge="1" parent="1" source="xQfnCEk7CWuEdYwv5p65-1">
          <mxGeometry relative="1" as="geometry">
            <mxPoint x="156" y="320" as="targetPoint" />
            <Array as="points">
              <mxPoint x="69" y="320" />
              <mxPoint x="156" y="320" />
            </Array>
          </mxGeometry>
        </mxCell>
        <mxCell id="xQfnCEk7CWuEdYwv5p65-22" style="edgeStyle=orthogonalEdgeStyle;rounded=0;orthogonalLoop=1;jettySize=auto;html=1;" edge="1" parent="1" source="xQfnCEk7CWuEdYwv5p65-2">
          <mxGeometry relative="1" as="geometry">
            <mxPoint x="160" y="280" as="targetPoint" />
            <Array as="points">
              <mxPoint x="139" y="223" />
              <mxPoint x="160" y="223" />
            </Array>
          </mxGeometry>
        </mxCell>
        <mxCell id="xQfnCEk7CWuEdYwv5p65-23" style="edgeStyle=orthogonalEdgeStyle;rounded=0;orthogonalLoop=1;jettySize=auto;html=1;entryX=0.761;entryY=0;entryDx=0;entryDy=0;entryPerimeter=0;" edge="1" parent="1" source="xQfnCEk7CWuEdYwv5p65-3" target="xQfnCEk7CWuEdYwv5p65-20">
          <mxGeometry relative="1" as="geometry" />
        </mxCell>
        <mxCell id="xQfnCEk7CWuEdYwv5p65-24" style="edgeStyle=orthogonalEdgeStyle;rounded=0;orthogonalLoop=1;jettySize=auto;html=1;entryX=0.989;entryY=0.686;entryDx=0;entryDy=0;entryPerimeter=0;" edge="1" parent="1" source="xQfnCEk7CWuEdYwv5p65-4" target="xQfnCEk7CWuEdYwv5p65-20">
          <mxGeometry relative="1" as="geometry">
            <mxPoint x="210" y="280" as="targetPoint" />
            <Array as="points">
              <mxPoint x="277" y="315" />
            </Array>
          </mxGeometry>
        </mxCell>
        <mxCell id="xQfnCEk7CWuEdYwv5p65-25" style="edgeStyle=orthogonalEdgeStyle;rounded=0;orthogonalLoop=1;jettySize=auto;html=1;" edge="1" parent="1" source="xQfnCEk7CWuEdYwv5p65-10" target="xQfnCEk7CWuEdYwv5p65-14">
          <mxGeometry relative="1" as="geometry">
            <Array as="points">
              <mxPoint x="486" y="316" />
            </Array>
          </mxGeometry>
        </mxCell>
        <mxCell id="xQfnCEk7CWuEdYwv5p65-26" style="edgeStyle=orthogonalEdgeStyle;rounded=0;orthogonalLoop=1;jettySize=auto;html=1;" edge="1" parent="1" source="xQfnCEk7CWuEdYwv5p65-9" target="xQfnCEk7CWuEdYwv5p65-14">
          <mxGeometry relative="1" as="geometry">
            <Array as="points">
              <mxPoint x="556" y="280" />
              <mxPoint x="556" y="280" />
            </Array>
          </mxGeometry>
        </mxCell>
        <mxCell id="xQfnCEk7CWuEdYwv5p65-27" style="edgeStyle=orthogonalEdgeStyle;rounded=0;orthogonalLoop=1;jettySize=auto;html=1;entryX=0.574;entryY=-0.078;entryDx=0;entryDy=0;entryPerimeter=0;" edge="1" parent="1" source="xQfnCEk7CWuEdYwv5p65-8" target="xQfnCEk7CWuEdYwv5p65-14">
          <mxGeometry relative="1" as="geometry" />
        </mxCell>
        <mxCell id="xQfnCEk7CWuEdYwv5p65-28" style="edgeStyle=orthogonalEdgeStyle;rounded=0;orthogonalLoop=1;jettySize=auto;html=1;entryX=1.044;entryY=0.392;entryDx=0;entryDy=0;entryPerimeter=0;" edge="1" parent="1" source="xQfnCEk7CWuEdYwv5p65-7" target="xQfnCEk7CWuEdYwv5p65-14">
          <mxGeometry relative="1" as="geometry">
            <Array as="points">
              <mxPoint x="690" y="310" />
            </Array>
          </mxGeometry>
        </mxCell>
        <mxCell id="xQfnCEk7CWuEdYwv5p65-31" style="edgeStyle=orthogonalEdgeStyle;rounded=0;orthogonalLoop=1;jettySize=auto;html=1;exitX=1;exitY=0.45;exitDx=0;exitDy=0;exitPerimeter=0;entryX=0.13;entryY=0.5;entryDx=0;entryDy=0;entryPerimeter=0;" edge="1" parent="1" source="xQfnCEk7CWuEdYwv5p65-29" target="xQfnCEk7CWuEdYwv5p65-30">
          <mxGeometry relative="1" as="geometry" />
        </mxCell>
        <mxCell id="xQfnCEk7CWuEdYwv5p65-29" value="Modem" style="shape=mxgraph.cisco.modems_and_phones.cable_modem;html=1;pointerEvents=1;dashed=0;fillColor=#036897;strokeColor=#ffffff;strokeWidth=2;verticalLabelPosition=bottom;verticalAlign=top;align=center;outlineConnect=0;" vertex="1" parent="1">
          <mxGeometry x="50" y="590" width="74" height="35" as="geometry" />
        </mxCell>
        <mxCell id="xQfnCEk7CWuEdYwv5p65-32" style="edgeStyle=orthogonalEdgeStyle;rounded=0;orthogonalLoop=1;jettySize=auto;html=1;exitX=0.87;exitY=0.5;exitDx=0;exitDy=0;exitPerimeter=0;" edge="1" parent="1" source="xQfnCEk7CWuEdYwv5p65-30" target="xQfnCEk7CWuEdYwv5p65-17">
          <mxGeometry relative="1" as="geometry" />
        </mxCell>
        <mxCell id="xQfnCEk7CWuEdYwv5p65-30" value="Router" style="aspect=fixed;pointerEvents=1;shadow=0;dashed=0;html=1;strokeColor=none;labelPosition=center;verticalLabelPosition=bottom;verticalAlign=top;align=center;fillColor=#00188D;shape=mxgraph.mscae.enterprise.router" vertex="1" parent="1">
          <mxGeometry x="170" y="566" width="75.64" height="59" as="geometry" />
        </mxCell>
      </root>
    </mxGraphModel>
  </diagram>
</mxfile>
